<svg id="Capa_1" enable-background="new 0 0 512.032 512.032" height="512" viewBox="0 0 512.032 512.032" width="512" xmlns="http://www.w3.org/2000/svg"><g><g><path d="m413.526 230.752v139.32l-166.66 87.8-116.06-190.47v-125l260.44 60.32c6.01 1.39 11.22 4.62 15.07 9 4.53 5.12 7.21 11.82 7.21 19.03z" fill="#b6c4cf"/><path d="m406.316 211.722c-3.85-4.38-9.06-7.61-15.07-9l-260.44-60.32v6.372l232.927 53.948c6.01 1.39 11.22 4.62 15.07 9 4.53 5.12 7.21 11.82 7.21 19.03v139.32l-145.833 76.828 6.686 10.972 166.66-87.8v-139.32c0-7.21-2.68-13.91-7.21-19.03z" fill="#9facba"/><path d="m130.806 207.432-105.921-21.828c-9.256-1.907-13.593-12.616-8.273-20.426l41.887-61.496c4.293-6.303 10.921-10.636 18.417-12.041l98.659-18.486-23.441 74.193z" fill="#8d9ca8"/><path d="m146.33 78.635-21.71 68.713-19.452 54.801 25.638 5.283 21.328-60.084 23.44-74.192z" fill="#7a8c98"/><path d="m130.806 267.402-35.205 119.381c-1.665 5.892 5.071 10.554 9.999 6.921l72.104-49.336z" fill="#8d9ca8"/><path d="m413.528 370.074 47.606 16.343c5.885 2.02 12.353-.661 15.083-6.252l19.987-40.938c2.176-4.457 2.002-9.703-.464-14.006l-19.44-33.921c-2.848-4.969-8.743-7.323-14.23-5.682l-48.541 14.519v69.937z" fill="#edf4ff"/><path d="m495.739 325.221-19.44-33.921c-2.848-4.969-8.743-7.323-14.23-5.682l-14.246 4.261c.348.448.675.917.963 1.421l19.44 33.921c2.466 4.303 2.64 9.549.464 14.006l-19.987 40.938c-.285.584-.62 1.129-.982 1.648l13.412 4.604c5.885 2.02 12.353-.661 15.083-6.252l19.987-40.938c2.176-4.457 2.002-9.703-.464-14.006z" fill="#dbeaff"/><path d="m413.526 230.752v139.32l-58.15 87.8h-108.51l51.377-178.117c2.278-7.896 7.656-14.533 14.909-18.398l93.164-49.635c4.53 5.12 7.21 11.82 7.21 19.03z" fill="#8d9ca8"/><path d="m406.316 211.722-21.343 11.371c.677 2.45 1.04 5.02 1.04 7.659v139.32l-58.15 87.8h27.513l58.15-87.8v-139.32c0-7.21-2.68-13.91-7.21-19.03z" fill="#7a8c98"/><path d="m355.371 457.868-28.193 40.271c-2.805 4.007-7.389 6.393-12.28 6.393h-91.928c-5.277 0-8.224-6.092-4.948-10.229l28.847-36.435z" fill="#b6c4cf"/><path d="m327.858 457.868-28.193 40.271c-2.805 4.007-7.389 6.393-12.28 6.393h27.513c4.891 0 9.475-2.386 12.28-6.393l28.193-40.271z" fill="#9facba"/><path d="m355.368 7.532-20.925 72.996c-2.64 9.211-9.819 16.426-19.016 19.113l-163.294 47.708 23.442-74.192z" fill="#ff9a9f"/><path d="m324.64 18.748-17.709 61.78c-2.641 9.211-9.819 16.426-19.016 19.113l-132.983 38.852-2.798 8.856 163.294-47.708c9.198-2.687 16.376-9.902 19.016-19.113l20.925-72.996z" fill="#ff8086"/><path d="m355.368 7.532-203.234 139.816 23.441-74.192z" fill="#b6c4cf"/><path d="m276.33 36.381-113.891 78.352-10.305 32.615 203.234-139.816z" fill="#9facba"/></g><path d="m502.246 321.492-19.439-33.922c-4.605-8.033-14.017-11.789-22.887-9.137l-13.381 4.002c-3.968 1.187-6.223 5.366-5.036 9.334 1.188 3.969 5.366 6.223 9.335 5.037l13.381-4.002c2.162-.644 4.453.269 5.574 2.225l19.438 33.921c1.231 2.149 1.318 4.761.232 6.986l-19.986 40.937c-1.068 2.186-3.609 3.24-5.908 2.45l-42.541-14.604-.003-133.967c.378-15.382-11.717-31.904-28.087-35.337l-211.175-48.91 135.767-39.665c11.735-3.429 20.754-12.493 24.123-24.246l20.925-72.996c1.376-5.048-3.138-11.419-9.781-9.112l-179.206 65.41-98.057 18.374c-9.388 1.758-17.856 7.295-23.234 15.19l-41.888 61.496c-3.912 5.745-4.69 13.022-2.081 19.464 2.61 6.443 8.232 11.127 15.04 12.529l70.634 14.556c4.056.835 8.023-1.775 8.859-5.832s-1.775-8.023-5.832-8.859l-70.634-14.556c-2.717-.56-3.817-2.612-4.164-3.469-.348-.856-.985-3.097.575-5.389l41.887-61.495c3.148-4.621 8.105-7.862 13.6-8.892l86.355-16.181-40.914 122.09c-.192.629-.419 1.366-.432 2.509v58.888l-34.921 118.424c-1.644 5.816.506 11.797 5.476 15.238 3.938 2.518 9.767 3.923 16.065-.149l65.489-44.809 62.329 102.29-25.601 32.335c-3.316 4.188-3.932 9.778-1.604 14.587 2.326 4.81 7.09 7.797 12.433 7.797h91.928c7.333 0 14.221-3.586 18.424-9.592l83.254-123.39 42.124 14.461c2.115.726 4.279 1.073 6.415 1.073 7.398 0 14.44-4.164 17.842-11.128l19.987-40.938c3.268-6.699 3.007-14.559-.699-21.026zm-150.896 128.876h-74.149l24.765-13.046c3.664-1.931 5.07-6.467 3.14-10.131-1.932-3.664-6.464-5.073-10.132-3.14l-36.021 18.977 46.496-161.193c1.706-5.914 5.8-10.964 11.23-13.857l87.226-46.472c.224 1.025 1.886 2.629 2.121 9.248v134.794l-79.326 41.79c-3.664 1.931-5.07 6.467-3.14 10.131 1.344 2.55 3.947 4.006 6.643 4.006 1.178 0 2.374-.278 3.489-.866l57.395-30.237zm40.745-239.568-82.469 43.937c-8.989 4.789-15.766 13.149-18.59 22.938l-46.647 161.719-106.083-174.097v-56.573l18.659-52.565 232.591 53.87c.869.201 1.713.468 2.539.771zm-210.481-131.864 120.844-44.108-136.6 93.975zm145.619-.475c-1.942 6.777-7.143 12.004-13.91 13.981l-118.447 34.606 147.523-101.49zm-223.563 307.476 29.541-100.174 34.387 56.433zm217.363 107.901c-1.399 2-3.693 3.194-6.136 3.194h-89.471l25.067-31.66h90.468z"/></g></svg>